<?xml version="1.0" encoding="utf-8"?>
<!-- Svg Vector Icons : http://www.onlinewebfonts.com/icon -->
<!DOCTYPE svg PUBLIC "-//W3C//DTD SVG 1.1//EN" "http://www.w3.org/Graphics/SVG/1.1/DTD/svg11.dtd">
<svg version="1.1" xmlns="http://www.w3.org/2000/svg" xmlns:xlink="http://www.w3.org/1999/xlink" x="0px" y="0px" viewBox="0 0 256 256" enable-background="new 0 0 256 256" xml:space="preserve">
<metadata> Svg Vector Icons : http://www.onlinewebfonts.com/icon </metadata>
<g><g><g><path fill="#000000" d="M117.5,10.1C80.4,12.4,52.6,21.4,43,34.2c-6.3,8.4-5.8,16.9,1.6,24.7l3,3.2l-2.9,3.1c-4.4,4.7-5.8,7.9-5.8,13.2c-0.1,5.2,1.7,9.3,6,13.8l2.5,2.7l-2.8,3.1c-4.2,4.6-5.8,8.3-5.8,13.3c0.1,5.2,1.7,9,5.8,13.4l3,3.2l-3,3.2c-4.2,4.4-5.8,8.3-5.8,13.4c0,5.1,1.6,8.7,5.8,13.2l2.8,3l-2.8,3.1c-4.3,4.8-5.8,8.3-5.7,13.6c0,5.3,1.5,8.5,5.8,13.2l2.9,3.1l-3,3.2c-11.4,12.2-6.2,26.2,13.4,36c34.5,17.2,105.5,17.2,140,0c19.6-9.8,24.8-23.8,13.4-36l-3-3.2l3-3.2c4.2-4.4,5.8-8.2,5.8-13.4c0-5-1.5-8.4-5.7-13.2l-2.8-3.3l2.8-3c4-4.4,5.7-8.1,5.7-13.2c0-5.2-1.6-9-5.8-13.4l-3-3.2l3-3.2c4.2-4.4,5.8-8.2,5.8-13.4c0-5-1.6-8.7-5.8-13.3l-2.8-3.1l2.5-2.7c4.1-4.3,6-8.6,6-13.5c0-5.2-1.6-9-5.8-13.4l-3-3.2l3-3.2c9.2-9.8,7.5-21.7-4.3-30.4c-11.9-8.8-32-15-56.5-17.5C143.3,10.3,123.3,9.7,117.5,10.1z M133.6,26.6c0.3,0.4,2,1.2,4,1.6c4.4,1,7.6,2.4,8.4,4.1c1,1.7-0.2,2.4-4.7,2.4c-2.8,0-4.2-0.3-5.6-1.4c-1.7-1.2-2-1.3-2.6-0.5c-0.3,0.5-0.5,2.2-0.4,3.8l0.2,2.8l3.8,0.8c8.4,1.7,11.8,4.2,11.8,8.5c0,5.4-6.1,9.8-15.5,11.3c-2.6,0.4-3.1,0.6-3.1,1.9c0,3-0.6,3.5-4,3.5h-3.3l0.4-2.5l0.3-2.5l-3.3-0.4c-6.7-0.9-12.5-5.2-12.5-9.3c0-1.2,0.4-1.3,3.1-1.3c1.7,0,4.1-0.2,5.4-0.4c2.1-0.4,2.5-0.3,3.1,1.2c0.7,1.5,4.3,4.2,4.9,3.5c0.3-0.3,1.5-7.1,1.5-8.4c0-0.4-1.7-1-3.8-1.5c-2-0.4-4.7-1.4-5.9-2.2c-6.9-4.7-3.1-10.9,8.1-13.2c2.1-0.4,4.1-1.2,4.3-1.7C128.8,25.5,132.9,25.5,133.6,26.6z M63,70.7c7.8,3.5,22,7,36.6,9c9.8,1.4,36.3,2,47,1c20.1-1.7,36.2-5.4,50.7-11.8l2.4-1l3.5,3.3c3.8,3.6,4.6,5.6,3.9,9.2c-1.2,6.5-14.7,13.9-34.1,18.8c-24.4,6.1-61,6.3-87.2,0.6C65.9,95.5,50.2,87.2,49,80.5c-0.7-3.6,0.1-5.6,3.8-9.1C56.7,67.6,56,67.6,63,70.7z M60.7,102.8c18.2,8.4,52.3,13.2,81.1,11.3c21.6-1.5,36.8-4.6,52.2-10.7l5.6-2.2l2.1,1.7c4.8,3.6,6.7,8.6,4.8,12.3c-3.7,7.2-19.6,14.6-39.2,18.4c-14.1,2.7-20.7,3.3-39.3,3.3c-18.6,0-25.1-0.6-39.3-3.3c-16.3-3.2-31.1-9.3-36.5-15c-4.8-5.1-4.7-8.9,0.4-14c1.7-1.7,3.5-3.2,4-3.2C57,101.2,58.8,101.9,60.7,102.8z M77.5,141.4c15,4,31.3,5.8,50.5,5.8c25.9,0,48.7-3.8,65.5-10.8l6-2.5l2.9,2.6c1.6,1.4,3.3,3.4,3.8,4.4c5.9,11.3-17.5,23.3-54.1,27.8c-11.7,1.5-36.8,1.5-48.5,0c-24.1-2.9-43.7-9.5-51.3-17.1c-5.1-5.1-5-9.2,0.5-14.4l3.4-3.3l7,2.8C67,138.3,73.5,140.4,77.5,141.4z M63,169.6c17.2,7,38.7,10.5,65,10.5c26.8,0,47.6-3.5,65.7-10.8l5.9-2.4l1.7,1.5c4.9,4.2,6.5,7.5,5.6,11.2c-1.3,5-11,11.3-23.8,15.5c-14.8,4.9-29,7-49.5,7.5c-29.5,0.8-54.9-3.5-72.1-12.1c-13.4-6.6-16.2-13.2-9-20.3c1.8-1.7,3.5-3.2,3.6-3.2C56.6,167,59.6,168.2,63,169.6z M79.1,207.7c16.4,4.1,25.4,5.1,48.9,5.1c18.4,0,21.9-0.2,30.6-1.5c12.6-1.9,25-5,34-8.6l7.1-2.8l2.9,2.6c8.5,7.5,5.7,14.3-9,21.7c-21.9,11.1-63.7,15-98.8,9.4c-21.4-3.4-38.7-10.5-44.2-18c-3.2-4.5-2.4-8.5,2.9-13.1l2.9-2.6l7.1,2.8C67.4,204.3,74.4,206.5,79.1,207.7z"/><path fill="#000000" d="M124,33.1c-2.4,1.3-2.3,3.1,0.2,4.4c1.1,0.6,2,1,2.2,0.8c0.1-0.1,0.3-1.5,0.5-3.3C127.4,31.8,127,31.5,124,33.1z"/><path fill="#000000" d="M131.6,46.3c-0.1,0.4-0.4,2.5-0.6,4.5l-0.4,3.6l1.7-0.4c3.6-0.8,6.3-3.6,5.6-5.6C137.2,46.8,132,45,131.6,46.3z"/></g></g></g>
</svg>